<svg xmlns="http://www.w3.org/2000/svg" viewBox="0 0 1600 900" preserveAspectRatio="xMidYMid slice" role="img" aria-hidden="true">
	<defs>
		<linearGradient id="sky" x1="0" y1="0" x2="1" y2="1">
			<stop offset="0%" stop-color="#6fae78"/>
			<stop offset="45%" stop-color="#3d8f4a"/>
			<stop offset="100%" stop-color="#1b3d24"/>
		</linearGradient>
	</defs>
	<rect width="1600" height="900" fill="url(#sky)"/>
	<circle cx="1280" cy="120" r="90" fill="#c8e6c9" opacity="0.35"/>
	<g fill="#0f2916" opacity="0.22">
		<ellipse cx="220" cy="760" rx="280" ry="90"/>
		<ellipse cx="720" cy="800" rx="360" ry="110"/>
		<ellipse cx="1280" cy="770" rx="300" ry="100"/>
	</g>
	<g fill="#e8f5e9">
		<rect x="180" y="430" width="210" height="280" rx="12"/>
		<rect x="430" y="360" width="250" height="350" rx="12"/>
		<rect x="720" y="400" width="180" height="310" rx="12"/>
		<rect x="1080" y="340" width="280" height="370" rx="14"/>
	</g>
	<g fill="#2e7d32" opacity="0.55">
		<rect x="204" y="470" width="70" height="90" rx="4"/>
		<rect x="296" y="470" width="70" height="90" rx="4"/>
		<rect x="454" y="400" width="80" height="110" rx="4"/>
		<rect x="560" y="400" width="80" height="110" rx="4"/>
		<rect x="1110" y="380" width="90" height="120" rx="4"/>
		<rect x="1230" y="380" width="90" height="120" rx="4"/>
	</g>
	<g fill="#fff" opacity="0.9">
		<circle cx="620" cy="560" r="46"/>
		<rect x="598" y="604" width="44" height="110" rx="18"/>
		<circle cx="980" cy="540" r="50"/>
		<rect x="956" y="588" width="48" height="120" rx="18"/>
		<circle cx="860" cy="570" r="42"/>
		<rect x="840" y="610" width="40" height="100" rx="16"/>
	</g>
	<g fill="#81c784">
		<path d="M620 548c-12-16-36-10-36 12 0 22 36 48 36 48s36-26 36-48c0-22-24-28-36-12z"/>
		<path d="M980 528c-13-17-38-11-38 13 0 24 38 52 38 52s38-28 38-52c0-24-25-30-38-13z"/>
	</g>
</svg>
